{
  "accessors": [
    {
      "bufferView": 2,
      "componentType": 5126,
      "count": 1001,
      "max": [
        1.851089596748352,
        0.3800000250339508,
        0.7072445154190063
      ],
      "min": [
        -2.17596435546875,
        -0.3800000846385956,
        -0.6395369172096252
      ],
      "type": "VEC3"
    },
    {
      "bufferView": 2,
      "byteOffset": 12012,
      "componentType": 5126,
      "count": 1001,
      "max": [
        0.9992607235908508,
        0.9999977350234985,
        0.9999817609786987
      ],
      "min": [
        -0.9666293859481812,
        -0.9999977350234985,
        -0.9998997449874878
      ],
      "type": "VEC3"
    },
    {
      "bufferView": 3,
      "componentType": 5126,
      "count": 1001,
      "max": [
        0.9804507493972778,
        0.999997615814209,
        0.9981168508529663,
        1.0
      ],
      "min": [
        -0.999981701374054,
        -0.9999552369117737,
        -0.9645524024963379,
        1.0
      ],
      "type": "VEC4"
    },
    {
      "bufferView": 1,
      "componentType": 5126,
      "count": 1001,
      "max": [
        0.9878315329551697,
        0.9913524389266968
      ],
      "min": [
        0.008641382679343224,
        0.00863984040915966
      ],
      "type": "VEC2"
    },
    {
      "bufferView": 0,
      "componentType": 5125,
      "count": 3924,
      "type": "SCALAR"
    },
    {
      "bufferView": 2,
      "byteOffset": 24024,
      "componentType": 5126,
      "count": 520,
      "max": [
        0.6038849949836731,
        0.017130980268120766,
        0.184701606631279
      ],
      "min": [
        -1.159954309463501,
        -0.017131010070443153,
        -0.054101794958114624
      ],
      "type": "VEC3"
    },
    {
      "bufferView": 2,
      "byteOffset": 30264,
      "componentType": 5126,
      "count": 520,
      "max": [
        0.8693230152130127,
        0.9998992085456848,
        0.8561168313026428
      ],
      "min": [
        -0.8693270683288574,
        -0.9998992085456848,
        -0.8561176061630249
      ],
      "type": "VEC3"
    },
    {
      "bufferView": 3,
      "byteOffset": 16016,
      "componentType": 5126,
      "count": 520,
      "max": [
        0.9999885559082031,
        0.869325578212738,
        0.9996864199638367,
        1.0
      ],
      "min": [
        -0.9999885559082031,
        -0.8693236708641052,
        -0.9996863603591919,
        1.0
      ],
      "type": "VEC4"
    },
    {
      "bufferView": 1,
      "byteOffset": 8008,
      "componentType": 5126,
      "count": 520,
      "max": [
        0.9645453691482544,
        0.9221482276916504
      ],
      "min": [
        0.32444408535957336,
        0.4733906090259552
      ],
      "type": "VEC2"
    },
    {
      "bufferView": 0,
      "byteOffset": 15696,
      "componentType": 5125,
      "count": 1296,
      "type": "SCALAR"
    }
  ],
  "asset": {
    "extras": {
      "author": "Batuhan13 (https://sketchfab.com/Batuhan13)",
      "license": "CC-BY-4.0 (http://creativecommons.org/licenses/by/4.0/)",
      "source": "https://sketchfab.com/3d-models/viking-war-horn-124e58ef07da473f9c5d0762733553ae",
      "title": "Viking War Horn"
    },
    "generator": "Sketchfab-12.65.0",
    "version": "2.0"
  },
  "bufferViews": [
    {
      "buffer": 0,
      "byteLength": 20880,
      "name": "floatBufferViews",
      "target": 34963
    },
    {
      "buffer": 0,
      "byteLength": 12168,
      "byteOffset": 20880,
      "byteStride": 8,
      "name": "floatBufferViews",
      "target": 34962
    },
    {
      "buffer": 0,
      "byteLength": 36504,
      "byteOffset": 33048,
      "byteStride": 12,
      "name": "floatBufferViews",
      "target": 34962
    },
    {
      "buffer": 0,
      "byteLength": 24336,
      "byteOffset": 69552,
      "byteStride": 16,
      "name": "floatBufferViews",
      "target": 34962
    }
  ],
  "buffers": [
    {
      "byteLength": 93888,
      "uri": "scene.bin"
    }
  ],
  "images": [
    {
      "uri": "textures/TT_checker_512x512_UV_GRID_baseColor.png"
    },
    {
      "uri": "textures/TT_checker_512x512_UV_GRID_metallicRoughness.png"
    },
    {
      "uri": "textures/TT_checker_512x512_UV_GRID_normal.png"
    }
  ],
  "materials": [
    {
      "doubleSided": true,
      "name": "TT_checker_512x512_UV_GRID",
      "normalTexture": {
        "index": 2
      },
      "pbrMetallicRoughness": {
        "baseColorTexture": {
          "index": 0
        },
        "metallicRoughnessTexture": {
          "index": 1
        },
        "roughnessFactor": 0.38348485773259944
      }
    }
  ],
  "meshes": [
    {
      "name": "1_low_TT_checker_512x512_UV_GRID_0",
      "primitives": [
        {
          "attributes": {
            "NORMAL": 1,
            "POSITION": 0,
            "TANGENT": 2,
            "TEXCOORD_0": 3
          },
          "indices": 4,
          "material": 0,
          "mode": 4
        }
      ]
    },
    {
      "name": "2_low_TT_checker_512x512_UV_GRID_0",
      "primitives": [
        {
          "attributes": {
            "NORMAL": 6,
            "POSITION": 5,
            "TANGENT": 7,
            "TEXCOORD_0": 8
          },
          "indices": 9,
          "material": 0,
          "mode": 4
        }
      ]
    }
  ],
  "nodes": [
    {
      "children": [
        1
      ],
      "matrix": [
        1.0,
        0.0,
        0.0,
        0.0,
        0.0,
        2.220446049250313e-16,
        -1.0,
        0.0,
        0.0,
        1.0,
        2.220446049250313e-16,
        0.0,
        0.0,
        0.0,
        0.0,
        1.0
      ],
      "name": "Sketchfab_model"
    },
    {
      "children": [
        2
      ],
      "matrix": [
        1.0,
        0.0,
        0.0,
        0.0,
        0.0,
        0.0,
        1.0,
        0.0,
        0.0,
        -1.0,
        0.0,
        0.0,
        0.0,
        0.0,
        0.0,
        1.0
      ],
      "name": "VikingWarHornL.fbx"
    },
    {
      "children": [
        3,
        5
      ],
      "name": "RootNode"
    },
    {
      "children": [
        4
      ],
      "matrix": [
        100.0,
        0.0,
        0.0,
        0.0,
        0.0,
        -1.629206793918314e-05,
        -99.99999999999868,
        0.0,
        0.0,
        99.99999999999868,
        -1.629206793918314e-05,
        0.0,
        0.0,
        0.0,
        0.0,
        1.0
      ],
      "name": "1_low"
    },
    {
      "mesh": 0,
      "name": "1_low_TT_checker_512x512_UV_GRID_0"
    },
    {
      "children": [
        6
      ],
      "matrix": [
        100.0,
        0.0,
        0.0,
        0.0,
        0.0,
        -1.629206793918314e-05,
        -99.99999999999868,
        0.0,
        0.0,
        99.99999999999868,
        -1.629206793918314e-05,
        0.0,
        0.0,
        0.0,
        0.0,
        1.0
      ],
      "name": "2_low"
    },
    {
      "mesh": 1,
      "name": "2_low_TT_checker_512x512_UV_GRID_0"
    }
  ],
  "samplers": [
    {
      "magFilter": 9729,
      "minFilter": 9987,
      "wrapS": 10497,
      "wrapT": 10497
    }
  ],
  "scene": 0,
  "scenes": [
    {
      "name": "Sketchfab_Scene",
      "nodes": [
        0
      ]
    }
  ],
  "textures": [
    {
      "sampler": 0,
      "source": 0
    },
    {
      "sampler": 0,
      "source": 1
    },
    {
      "sampler": 0,
      "source": 2
    }
  ]
}
