{
  "accessors": [
    {
      "bufferView": 1,
      "componentType": 5126,
      "count": 52094,
      "max": [
        2.304234266281128,
        5.4022979736328125,
        4.934219837188721
      ],
      "min": [
        0.0,
        0.0,
        0.0
      ],
      "type": "VEC3"
    },
    {
      "bufferView": 1,
      "byteOffset": 625128,
      "componentType": 5126,
      "count": 52094,
      "max": [
        0.9999947547912598,
        0.9999906420707703,
        0.9998258352279663
      ],
      "min": [
        -0.9999891519546509,
        -1.0,
        -0.9997984766960144
      ],
      "type": "VEC3"
    },
    {
      "bufferView": 0,
      "componentType": 5125,
      "count": 291348,
      "type": "SCALAR"
    }
  ],
  "asset": {
    "extras": {
      "author": "3dbrooklyn (https://sketchfab.com/3dbrooklyn)",
      "license": "CC-BY-NC-4.0 (http://creativecommons.org/licenses/by-nc/4.0/)",
      "source": "https://sketchfab.com/3d-models/raven-vikings-3d-prophecy-episode-16-1afa049792ca4c79942d09e49fdd0c2a",
      "title": "Raven - Vikings 3D Prophecy - Episode 16"
    },
    "generator": "Sketchfab-12.68.0",
    "version": "2.0"
  },
  "bufferViews": [
    {
      "buffer": 0,
      "byteLength": 1165392,
      "name": "floatBufferViews",
      "target": 34963
    },
    {
      "buffer": 0,
      "byteLength": 1250256,
      "byteOffset": 1165392,
      "byteStride": 12,
      "name": "floatBufferViews",
      "target": 34962
    }
  ],
  "buffers": [
    {
      "byteLength": 2415648,
      "uri": "scene.bin"
    }
  ],
  "materials": [
    {
      "doubleSided": true,
      "name": "Scene_-_Root",
      "pbrMetallicRoughness": {
        "baseColorFactor": [
          0.0,
          0.0,
          0.0,
          1.0
        ],
        "metallicFactor": 0.0,
        "roughnessFactor": 0.6
      }
    }
  ],
  "meshes": [
    {
      "name": "Object_0",
      "primitives": [
        {
          "attributes": {
            "NORMAL": 1,
            "POSITION": 0
          },
          "indices": 2,
          "material": 0,
          "mode": 4
        }
      ]
    }
  ],
  "nodes": [
    {
      "children": [
        1
      ],
      "matrix": [
        1.0,
        0.0,
        0.0,
        0.0,
        0.0,
        0.9999856948852539,
        -0.005348810926079528,
        0.0,
        0.0,
        0.005348810926079528,
        0.9999856948852539,
        0.0,
        0.0,
        -0.24720090627670174,
        -5.153771877288818,
        1.0
      ],
      "name": "Sketchfab_model"
    },
    {
      "children": [
        2
      ],
      "matrix": [
        1.0,
        0.0,
        0.0,
        0.0,
        0.0,
        1.0,
        0.0,
        0.0,
        0.0,
        0.0,
        1.0,
        0.0,
        -7.531901502488836e-08,
        -1.5499591654588585e-07,
        -2.6019705501312274e-08,
        1.0
      ],
      "name": "416+Raven.stl.cleaner.gles"
    },
    {
      "mesh": 0,
      "name": "Object_2"
    }
  ],
  "scene": 0,
  "scenes": [
    {
      "name": "Sketchfab_Scene",
      "nodes": [
        0
      ]
    }
  ]
}
