{
  "accessors": [
    {
      "bufferView": 2,
      "componentType": 5126,
      "count": 10092,
      "max": [
        3.2703561782836914,
        7.053214073181152,
        22.08817481994629
      ],
      "min": [
        -3.2703561782836914,
        -6.826760292053223,
        -15.109865188598633
      ],
      "type": "VEC3"
    },
    {
      "bufferView": 2,
      "byteOffset": 121104,
      "componentType": 5126,
      "count": 10092,
      "max": [
        1.0,
        1.0,
        1.0
      ],
      "min": [
        -1.0,
        -1.0,
        -1.0
      ],
      "type": "VEC3"
    },
    {
      "bufferView": 3,
      "componentType": 5126,
      "count": 10092,
      "max": [
        1.0,
        1.0,
        1.0,
        1.0
      ],
      "min": [
        -1.0,
        -0.9999997019767761,
        -0.9333534240722656,
        1.0
      ],
      "type": "VEC4"
    },
    {
      "bufferView": 1,
      "componentType": 5126,
      "count": 10092,
      "max": [
        0.8637632727622986,
        0.9998712539672852
      ],
      "min": [
        0.03333188220858574,
        0.00012875761603936553
      ],
      "type": "VEC2"
    },
    {
      "bufferView": 0,
      "componentType": 5125,
      "count": 45312,
      "type": "SCALAR"
    }
  ],
  "asset": {
    "extras": {
      "author": "Elliott_Lowes (https://sketchfab.com/ElliottLowes)",
      "license": "CC-BY-4.0 (http://creativecommons.org/licenses/by/4.0/)",
      "source": "https://sketchfab.com/3d-models/viking-hammer-e10f59a1da0d414cac6da61829d2bd99",
      "title": "Viking Hammer"
    },
    "generator": "Sketchfab-15.22.0",
    "version": "2.0"
  },
  "bufferViews": [
    {
      "buffer": 0,
      "byteLength": 181248,
      "name": "floatBufferViews",
      "target": 34963
    },
    {
      "buffer": 0,
      "byteLength": 80736,
      "byteOffset": 181248,
      "byteStride": 8,
      "name": "floatBufferViews",
      "target": 34962
    },
    {
      "buffer": 0,
      "byteLength": 242208,
      "byteOffset": 261984,
      "byteStride": 12,
      "name": "floatBufferViews",
      "target": 34962
    },
    {
      "buffer": 0,
      "byteLength": 161472,
      "byteOffset": 504192,
      "byteStride": 16,
      "name": "floatBufferViews",
      "target": 34962
    }
  ],
  "buffers": [
    {
      "byteLength": 665664,
      "uri": "scene.bin"
    }
  ],
  "images": [
    {
      "uri": "textures/Scene_-_Root_baseColor.png"
    },
    {
      "uri": "textures/Scene_-_Root_metallicRoughness.png"
    },
    {
      "uri": "textures/Scene_-_Root_normal.png"
    }
  ],
  "materials": [
    {
      "doubleSided": true,
      "name": "Scene_-_Root",
      "normalTexture": {
        "index": 2
      },
      "pbrMetallicRoughness": {
        "baseColorTexture": {
          "index": 0
        },
        "metallicRoughnessTexture": {
          "index": 1
        }
      }
    }
  ],
  "meshes": [
    {
      "name": "Viking Hamemr_Low__0",
      "primitives": [
        {
          "attributes": {
            "NORMAL": 1,
            "POSITION": 0,
            "TANGENT": 2,
            "TEXCOORD_0": 3
          },
          "indices": 4,
          "material": 0,
          "mode": 4
        }
      ]
    }
  ],
  "nodes": [
    {
      "children": [
        1
      ],
      "matrix": [
        0.11436720724159244,
        0.06870541389029938,
        0.019890989768363468,
        0.0,
        0.07146119596217204,
        -0.10814867544854677,
        -0.037324324441758726,
        0.0,
        -0.0030631774011720125,
        0.042182621500632705,
        -0.12809054366753259,
        0.0,
        0.0,
        0.0,
        0.0,
        1.0
      ],
      "name": "Sketchfab_model"
    },
    {
      "children": [
        2
      ],
      "matrix": [
        0.009999999776482582,
        0.0,
        0.0,
        0.0,
        0.0,
        0.0,
        0.009999999776482582,
        0.0,
        0.0,
        -0.009999999776482582,
        0.0,
        0.0,
        0.0,
        0.0,
        0.0,
        1.0
      ],
      "name": "87650288675c4703904eb2be7a8fde36.fbx"
    },
    {
      "children": [
        3
      ],
      "name": "RootNode"
    },
    {
      "children": [
        4
      ],
      "matrix": [
        19.723506927490234,
        0.0,
        0.0,
        0.0,
        0.0,
        -3.2133671486162023e-06,
        -19.723506927489975,
        0.0,
        0.0,
        19.723506927489975,
        -3.2133671486162023e-06,
        0.0,
        0.0,
        0.0,
        3.8284058570861816,
        1.0
      ],
      "name": "Viking Hamemr_Low"
    },
    {
      "mesh": 0,
      "name": "Viking Hamemr_Low__0"
    }
  ],
  "samplers": [
    {
      "magFilter": 9729,
      "minFilter": 9987,
      "wrapS": 10497,
      "wrapT": 10497
    }
  ],
  "scene": 0,
  "scenes": [
    {
      "name": "Sketchfab_Scene",
      "nodes": [
        0
      ]
    }
  ],
  "textures": [
    {
      "sampler": 0,
      "source": 0
    },
    {
      "sampler": 0,
      "source": 1
    },
    {
      "sampler": 0,
      "source": 2
    }
  ]
}
