{
  "accessors": [
    {
      "bufferView": 2,
      "componentType": 5126,
      "count": 2401,
      "max": [
        0.5174736976623535,
        1.3490893840789795,
        0.0740615501999855
      ],
      "min": [
        -0.5221901535987854,
        -3.2086687088012695,
        -0.0759495198726654
      ],
      "type": "VEC3"
    },
    {
      "bufferView": 2,
      "byteOffset": 28812,
      "componentType": 5126,
      "count": 2401,
      "max": [
        0.9999991655349731,
        1.0,
        1.0
      ],
      "min": [
        -1.0,
        -0.9998433589935303,
        -1.0
      ],
      "type": "VEC3"
    },
    {
      "bufferView": 3,
      "componentType": 5126,
      "count": 2401,
      "max": [
        0.9998956918716431,
        1.0,
        0.9999999403953552,
        1.0
      ],
      "min": [
        -1.0,
        -0.9999992251396179,
        -1.0,
        -1.0
      ],
      "type": "VEC4"
    },
    {
      "bufferView": 1,
      "componentType": 5126,
      "count": 2401,
      "max": [
        0.9960936903953552,
        0.99609375
      ],
      "min": [
        0.00390625,
        0.0039061903953552246
      ],
      "type": "VEC2"
    },
    {
      "bufferView": 1,
      "byteOffset": 19208,
      "componentType": 5126,
      "count": 2401,
      "max": [
        0.9960936903953552,
        0.99609375
      ],
      "min": [
        0.00390625,
        0.0039061903953552246
      ],
      "type": "VEC2"
    },
    {
      "bufferView": 1,
      "byteOffset": 38416,
      "componentType": 5126,
      "count": 2401,
      "max": [
        0.9960936903953552,
        0.99609375
      ],
      "min": [
        0.00390625,
        0.0039061903953552246
      ],
      "type": "VEC2"
    },
    {
      "bufferView": 1,
      "byteOffset": 57624,
      "componentType": 5126,
      "count": 2401,
      "max": [
        0.9960936903953552,
        0.99609375
      ],
      "min": [
        0.00390625,
        0.0039061903953552246
      ],
      "type": "VEC2"
    },
    {
      "bufferView": 0,
      "componentType": 5125,
      "count": 4002,
      "type": "SCALAR"
    },
    {
      "bufferView": 2,
      "byteOffset": 57624,
      "componentType": 5126,
      "count": 646,
      "max": [
        0.0946793258190155,
        1.0161924362182617,
        0.06809224933385849
      ],
      "min": [
        -0.09581473469734192,
        0.30095136165618896,
        -0.06809226423501968
      ],
      "type": "VEC3"
    },
    {
      "bufferView": 2,
      "byteOffset": 65376,
      "componentType": 5126,
      "count": 646,
      "max": [
        0.9998623132705688,
        1.0,
        0.9999879598617554
      ],
      "min": [
        -0.9997602105140686,
        -1.0,
        -0.9999879598617554
      ],
      "type": "VEC3"
    },
    {
      "bufferView": 3,
      "byteOffset": 38416,
      "componentType": 5126,
      "count": 646,
      "max": [
        0.9998161196708679,
        0.3962671756744385,
        0.9999979138374329,
        -1.0
      ],
      "min": [
        -1.0,
        -0.41481226682662964,
        -0.9989398121833801,
        -1.0
      ],
      "type": "VEC4"
    },
    {
      "bufferView": 1,
      "byteOffset": 76832,
      "componentType": 5126,
      "count": 646,
      "max": [
        0.974546492099762,
        0.99609375
      ],
      "min": [
        0.7757763862609863,
        0.7839354276657104
      ],
      "type": "VEC2"
    },
    {
      "bufferView": 1,
      "byteOffset": 82000,
      "componentType": 5126,
      "count": 646,
      "max": [
        0.974546492099762,
        0.99609375
      ],
      "min": [
        0.7757763862609863,
        0.7839354276657104
      ],
      "type": "VEC2"
    },
    {
      "bufferView": 1,
      "byteOffset": 87168,
      "componentType": 5126,
      "count": 646,
      "max": [
        0.974546492099762,
        0.99609375
      ],
      "min": [
        0.7757763862609863,
        0.7839354276657104
      ],
      "type": "VEC2"
    },
    {
      "bufferView": 1,
      "byteOffset": 92336,
      "componentType": 5126,
      "count": 646,
      "max": [
        0.974546492099762,
        0.99609375
      ],
      "min": [
        0.7757763862609863,
        0.7839354276657104
      ],
      "type": "VEC2"
    },
    {
      "bufferView": 0,
      "byteOffset": 16008,
      "componentType": 5125,
      "count": 1824,
      "type": "SCALAR"
    },
    {
      "bufferView": 2,
      "byteOffset": 73128,
      "componentType": 5126,
      "count": 2612,
      "max": [
        0.31455397605895996,
        0.26179859042167664,
        0.07643162459135056
      ],
      "min": [
        -0.28421247005462646,
        -1.1976631879806519,
        -0.07894919812679291
      ],
      "type": "VEC3"
    },
    {
      "bufferView": 2,
      "byteOffset": 104472,
      "componentType": 5126,
      "count": 2612,
      "max": [
        0.9998923540115356,
        0.9884540438652039,
        1.0
      ],
      "min": [
        -0.9999872446060181,
        -0.9911072254180908,
        -1.0
      ],
      "type": "VEC3"
    },
    {
      "bufferView": 3,
      "byteOffset": 48752,
      "componentType": 5126,
      "count": 2612,
      "max": [
        0.9934681057929993,
        0.9999884366989136,
        0.9999996423721313,
        1.0
      ],
      "min": [
        -0.9918851256370544,
        -0.999996542930603,
        -0.9999993443489075,
        -1.0
      ],
      "type": "VEC4"
    },
    {
      "bufferView": 1,
      "byteOffset": 97504,
      "componentType": 5126,
      "count": 2612,
      "max": [
        0.9881545901298523,
        0.99609375
      ],
      "min": [
        0.038262881338596344,
        0.042266249656677246
      ],
      "type": "VEC2"
    },
    {
      "bufferView": 1,
      "byteOffset": 118400,
      "componentType": 5126,
      "count": 2612,
      "max": [
        0.9881545901298523,
        0.99609375
      ],
      "min": [
        0.038262881338596344,
        0.042266249656677246
      ],
      "type": "VEC2"
    },
    {
      "bufferView": 1,
      "byteOffset": 139296,
      "componentType": 5126,
      "count": 2612,
      "max": [
        0.9881545901298523,
        0.99609375
      ],
      "min": [
        0.038262881338596344,
        0.042266249656677246
      ],
      "type": "VEC2"
    },
    {
      "bufferView": 1,
      "byteOffset": 160192,
      "componentType": 5126,
      "count": 2612,
      "max": [
        0.9881545901298523,
        0.99609375
      ],
      "min": [
        0.038262881338596344,
        0.042266249656677246
      ],
      "type": "VEC2"
    },
    {
      "bufferView": 0,
      "byteOffset": 23304,
      "componentType": 5125,
      "count": 3972,
      "type": "SCALAR"
    }
  ],
  "asset": {
    "extras": {
      "author": "blenderizm (https://sketchfab.com/blenderizm)",
      "license": "CC-BY-4.0 (http://creativecommons.org/licenses/by/4.0/)",
      "source": "https://sketchfab.com/3d-models/viking-sword-with-runes-game-ready-3d-model-f0fc56c2b71f4349adf32d6feb8af0cb",
      "title": "Viking Sword with Runes – Game-Ready 3D Model"
    },
    "generator": "Sketchfab-16.68.0",
    "version": "2.0"
  },
  "bufferViews": [
    {
      "buffer": 0,
      "byteLength": 39192,
      "name": "floatBufferViews",
      "target": 34963
    },
    {
      "buffer": 0,
      "byteLength": 181088,
      "byteOffset": 39192,
      "byteStride": 8,
      "name": "floatBufferViews",
      "target": 34962
    },
    {
      "buffer": 0,
      "byteLength": 135816,
      "byteOffset": 220280,
      "byteStride": 12,
      "name": "floatBufferViews",
      "target": 34962
    },
    {
      "buffer": 0,
      "byteLength": 90544,
      "byteOffset": 356096,
      "byteStride": 16,
      "name": "floatBufferViews",
      "target": 34962
    }
  ],
  "buffers": [
    {
      "byteLength": 446640,
      "uri": "scene.bin"
    }
  ],
  "extensionsUsed": [
    "KHR_materials_specular"
  ],
  "images": [
    {
      "uri": "textures/metal_baseColor.jpeg"
    },
    {
      "uri": "textures/metal_metallicRoughness.png"
    },
    {
      "uri": "textures/metal_normal.jpeg"
    },
    {
      "uri": "textures/metal_specularf0.png"
    },
    {
      "uri": "textures/handle_baseColor.jpeg"
    },
    {
      "uri": "textures/handle_metallicRoughness.png"
    },
    {
      "uri": "textures/handle_normal.jpeg"
    },
    {
      "uri": "textures/leather_baseColor.jpeg"
    },
    {
      "uri": "textures/leather_metallicRoughness.png"
    },
    {
      "uri": "textures/leather_normal.jpeg"
    }
  ],
  "materials": [
    {
      "doubleSided": true,
      "extensions": {
        "KHR_materials_specular": {
          "specularColorFactor": [
            1.0,
            1.0,
            1.0
          ],
          "specularFactor": 1.0,
          "specularTexture": {
            "index": 3
          }
        }
      },
      "name": "metal",
      "normalTexture": {
        "index": 2
      },
      "pbrMetallicRoughness": {
        "baseColorTexture": {
          "index": 0
        },
        "metallicRoughnessTexture": {
          "index": 1
        }
      }
    },
    {
      "doubleSided": true,
      "name": "handle",
      "normalTexture": {
        "index": 6
      },
      "pbrMetallicRoughness": {
        "baseColorTexture": {
          "index": 4
        },
        "metallicRoughnessTexture": {
          "index": 5
        }
      }
    },
    {
      "doubleSided": true,
      "name": "leather",
      "normalTexture": {
        "index": 9
      },
      "pbrMetallicRoughness": {
        "baseColorTexture": {
          "index": 7
        },
        "metallicRoughnessTexture": {
          "index": 8
        }
      }
    }
  ],
  "meshes": [
    {
      "name": "Object_0",
      "primitives": [
        {
          "attributes": {
            "NORMAL": 1,
            "POSITION": 0,
            "TANGENT": 2,
            "TEXCOORD_0": 3,
            "TEXCOORD_1": 4,
            "TEXCOORD_2": 5,
            "TEXCOORD_3": 6
          },
          "indices": 7,
          "material": 0,
          "mode": 4
        }
      ]
    },
    {
      "name": "Object_1",
      "primitives": [
        {
          "attributes": {
            "NORMAL": 9,
            "POSITION": 8,
            "TANGENT": 10,
            "TEXCOORD_0": 11,
            "TEXCOORD_1": 12,
            "TEXCOORD_2": 13,
            "TEXCOORD_3": 14
          },
          "indices": 15,
          "material": 1,
          "mode": 4
        }
      ]
    },
    {
      "name": "Object_2",
      "primitives": [
        {
          "attributes": {
            "NORMAL": 17,
            "POSITION": 16,
            "TANGENT": 18,
            "TEXCOORD_0": 19,
            "TEXCOORD_1": 20,
            "TEXCOORD_2": 21,
            "TEXCOORD_3": 22
          },
          "indices": 23,
          "material": 2,
          "mode": 4
        }
      ]
    }
  ],
  "nodes": [
    {
      "children": [
        1
      ],
      "matrix": [
        1.0,
        0.0,
        0.0,
        0.0,
        0.0,
        2.220446049250313e-16,
        -1.0,
        0.0,
        0.0,
        1.0,
        2.220446049250313e-16,
        0.0,
        0.0,
        0.0,
        0.0,
        1.0
      ],
      "name": "Sketchfab_model"
    },
    {
      "children": [
        2
      ],
      "name": "root"
    },
    {
      "children": [
        3
      ],
      "matrix": [
        1.0,
        0.0,
        0.0,
        0.0,
        0.0,
        2.220446049250313e-16,
        1.0,
        0.0,
        0.0,
        -1.0,
        2.220446049250313e-16,
        0.0,
        0.0,
        0.0,
        0.0,
        1.0
      ],
      "name": "GLTF_SceneRootNode"
    },
    {
      "children": [
        4,
        5,
        6
      ],
      "matrix": [
        0.7999035248473548,
        0.5530658334669004,
        -0.23296466424833617,
        0.0,
        -0.5823498305241083,
        0.809123789897963,
        -0.0786598214446194,
        0.0,
        0.14499319234129426,
        0.19858720118053896,
        0.9692987659653552,
        0.0,
        -0.9422536492347717,
        1.4451749324798584,
        0.0,
        1.0
      ],
      "name": "LP_0"
    },
    {
      "mesh": 0,
      "name": "Object_4"
    },
    {
      "mesh": 1,
      "name": "Object_5"
    },
    {
      "mesh": 2,
      "name": "Object_6"
    }
  ],
  "samplers": [
    {
      "magFilter": 9729,
      "minFilter": 9987,
      "wrapS": 10497,
      "wrapT": 10497
    }
  ],
  "scene": 0,
  "scenes": [
    {
      "name": "Sketchfab_Scene",
      "nodes": [
        0
      ]
    }
  ],
  "textures": [
    {
      "sampler": 0,
      "source": 0
    },
    {
      "sampler": 0,
      "source": 1
    },
    {
      "sampler": 0,
      "source": 2
    },
    {
      "sampler": 0,
      "source": 3
    },
    {
      "sampler": 0,
      "source": 4
    },
    {
      "sampler": 0,
      "source": 5
    },
    {
      "sampler": 0,
      "source": 6
    },
    {
      "sampler": 0,
      "source": 7
    },
    {
      "sampler": 0,
      "source": 8
    },
    {
      "sampler": 0,
      "source": 9
    }
  ]
}
